<?xml version="1.0" encoding="UTF-8" standalone="no"?>
<!-- Creator: CorelDRAW -->

<svg
   xmlns:dc="http://purl.org/dc/elements/1.1/"
   xmlns:cc="http://creativecommons.org/ns#"
   xmlns:rdf="http://www.w3.org/1999/02/22-rdf-syntax-ns#"
   xmlns:svg="http://www.w3.org/2000/svg"
   xmlns="http://www.w3.org/2000/svg"
   xmlns:sodipodi="http://sodipodi.sourceforge.net/DTD/sodipodi-0.dtd"
   xmlns:inkscape="http://www.inkscape.org/namespaces/inkscape"
   xml:space="preserve"
   width="158.75mm"
   height="79.375mm"
   style="shape-rendering:geometricPrecision; text-rendering:geometricPrecision; image-rendering:optimizeQuality; fill-rule:evenodd; clip-rule:evenodd"
   viewBox="0 0 158.75 79.375"
   id="svg3151"
   version="1.1"
   inkscape:version="0.48.5 r10040"
   sodipodi:docname="Acdc_logo_band.svg"><metadata
   id="metadata3167"><rdf:RDF><cc:Work
       rdf:about=""><dc:format>image/svg+xml</dc:format><dc:type
         rdf:resource="http://purl.org/dc/dcmitype/StillImage" /></cc:Work></rdf:RDF></metadata><sodipodi:namedview
   pagecolor="#ffffff"
   bordercolor="#666666"
   borderopacity="1"
   objecttolerance="10"
   gridtolerance="10"
   guidetolerance="10"
   inkscape:pageopacity="0"
   inkscape:pageshadow="2"
   inkscape:window-width="1366"
   inkscape:window-height="705"
   id="namedview3165"
   showgrid="false"
   inkscape:zoom="1.2231111"
   inkscape:cx="398.36704"
   inkscape:cy="90.827932"
   inkscape:window-x="-8"
   inkscape:window-y="-8"
   inkscape:window-maximized="1"
   inkscape:current-layer="svg3151" />
 <defs
   id="defs3153">
  <style
   type="text/css"
   id="style3155">
   
    .str0 {stroke:#141516;stroke-width:0.2}
    .str1 {stroke:#1F1A17;stroke-width:0.2}
    .str2 {stroke:#141516;stroke-width:0.3528}
    .fil0 {fill:#141516}
   
  </style>
 </defs>
 
<path
   style="fill:#000000;stroke:none;fill-opacity:1"
   d="m 42.498974,51.710062 0.0128,-30.11943 12.38,-11.475533 12.9972,12.12711 -7.10351,6.830486 -8.72882,-7.952313 0.0694,27.64243 1.541,1.43466 6.93346,-6.276058 6.88671,6.186811 -13.08392,12.454317 z"
   id="path3117"
   inkscape:connector-curvature="0"
   sodipodi:nodetypes="cccccccccccc" /><path
   style="fill:#000000;stroke:none;fill-opacity:1"
   d="m 10.544964,54.794 c 1.18406,-1.109596 2.36813,-2.219195 3.55219,-3.328791 0.0323,-9.673105 0.0645,-19.34621 0.0968,-29.019314 4.39125,-4.050039 8.78251,-8.100075 13.17376,-12.150113 4.08353,3.759186 8.16706,7.518369 12.25058,11.277555 0.0592,10.020308 0.11846,20.040614 0.17769,30.060923 1.17798,0.951046 2.35595,1.90209 3.53392,2.853137 -2.73395,2.727948 -5.46791,5.455894 -8.20186,8.183843 -2.77418,-2.632569 -5.54835,-5.265138 -8.32252,-7.897707 1.13305,-1.125149 2.26609,-2.250296 3.39914,-3.375445 0.009,-1.98203 0.0181,-3.96406 0.0271,-5.946089 -2.15769,0.04594 -4.31537,0.09189 -6.47306,0.137828 -0.0246,1.898851 -0.0492,3.797704 -0.0738,5.696554 1.13848,1.161664 2.27695,2.323324 3.41543,3.484988 -2.7214,2.624201 -5.4428,5.248404 -8.1642,7.872605 -2.79705,-2.616657 -5.5941,-5.233317 -8.39115,-7.849974 z m 19.6846,-28.195377 c -2.19985,-1.98781 -4.3997,-3.975623 -6.59954,-5.963432 0.0156,5.160193 0.0312,10.320384 0.0468,15.480577 2.20105,0.0087 4.4021,0.01741 6.60315,0.02611 -0.0168,-3.181085 -0.0336,-6.362167 -0.0504,-9.543251 z"
   id="path3119"
   inkscape:connector-curvature="0" /><path
   style="fill:#000000;stroke:none;fill-opacity:1"
   d="m 66.706184,65.957441 8.42737,-22.815352 -7.71425,-0.246231 10.45041,-22.269732 10.44878,0.02052 -5.12912,13.556565 8.09488,-0.07021 z"
   id="path3121"
   inkscape:connector-curvature="0"
   sodipodi:nodetypes="cccccccc" /><path
   style="fill:#000000;stroke:none;fill-opacity:1"
   d="m 97.933394,62.364987 -7.08693,-6.886753 3.77404,-3.458092 -0.08,-31.317986 -3.52909,-3.472352 6.935039,-6.793489 11.894767,-0.02166 10.16946,9.616638 -0.0679,32.874882 -10.18131,9.466199 z m 12.632996,-14.614811 -0.0695,-22.398589 -6.57489,-6.195811 0.15089,34.655063 z"
   id="path3123"
   inkscape:connector-curvature="0"
   sodipodi:nodetypes="cccccccccccccccc" /><path
   style="fill:#000000;stroke:none;fill-opacity:1"
   d="m 128.64755,57.800132 -5.71292,-5.91838 0,-30.586156 12.04693,-11.187593 13.22348,12.127659 -7.16486,6.612729 -8.7197,-7.956152 0.0464,27.903198 1.55487,1.420803 7.04811,-6.541897 6.99152,6.440782 -14.00411,12.897832 z"
   id="path3125"
   inkscape:connector-curvature="0"
   sodipodi:nodetypes="ccccccccccccc" /></svg>